<svg version="1.1" id="Layer_1" xmlns="http://www.w3.org/2000/svg" xmlns:xlink="http://www.w3.org/1999/xlink" x="0px" y="0px"
	 width="100%" viewBox="0 0 1536 1024" enable-background="new 0 0 1536 1024" xml:space="preserve">
<path fill="#FEFEFE" opacity="1.000000" stroke="none" 
	d="
M994.000000,1025.000000 
	C662.666687,1025.000000 331.833344,1025.000000 1.000000,1025.000000 
	C1.000000,683.666687 1.000000,342.333344 1.000000,1.000000 
	C513.000000,1.000000 1025.000000,1.000000 1537.000000,1.000000 
	C1537.000000,342.333344 1537.000000,683.666687 1537.000000,1025.000000 
	C1356.166626,1025.000000 1175.333374,1025.000000 994.000000,1025.000000 
M86.995880,447.900391 
	C87.054810,451.268494 87.113747,454.636566 87.004440,458.927979 
	C86.997726,464.406891 86.975990,469.885834 86.986771,475.364716 
	C87.047539,506.241974 87.116119,537.119202 87.005630,568.919495 
	C87.005630,590.212097 87.005630,611.504761 87.005630,633.244385 
	C89.738670,633.369568 92.021835,633.566040 94.304878,633.564514 
	C118.453224,633.548096 142.589523,633.432434 166.575958,637.085083 
	C199.977020,642.171509 231.213730,652.679382 258.560669,673.107849 
	C263.708191,676.953247 268.529602,681.235229 273.509399,685.322205 
	C274.352844,684.719177 274.943420,684.395142 275.414703,683.945862 
	C301.095123,659.466980 332.331573,646.345459 366.582733,639.484436 
	C394.834900,633.824890 423.449432,633.114868 452.137665,633.533081 
	C459.359680,633.638428 459.317902,633.540833 459.314331,626.505981 
	C459.286682,572.192444 459.270935,517.878906 459.265167,463.565399 
	C459.263000,442.906128 459.306610,422.246826 459.300049,401.587555 
	C459.299347,399.373962 460.052673,396.582458 456.291565,396.580200 
	C450.175476,396.576477 444.059387,396.579163 437.380768,396.579163 
	C437.380768,399.284424 437.381287,401.401672 437.380707,403.518921 
	C437.363281,467.161499 437.312408,530.804138 437.403076,594.446533 
	C437.409119,598.693298 436.288086,600.004822 431.817566,600.265991 
	C416.044373,601.187378 400.155396,601.773376 384.588165,604.240051 
	C348.963104,609.885254 316.816223,623.609009 290.445679,648.951843 
	C284.280579,654.876709 278.852722,661.568726 272.872742,668.141846 
	C271.266479,666.215332 269.655579,664.335632 268.100800,662.410645 
	C250.845062,641.046143 229.005753,626.023376 203.706482,615.750122 
	C175.170181,604.162415 145.275223,600.291016 114.751778,600.203613 
	C110.374725,600.191040 108.897362,598.838928 109.000305,594.465393 
	C109.207855,585.648499 108.940208,576.820435 109.058426,567.076660 
	C109.076881,532.327698 109.137711,497.578735 109.098251,462.829895 
	C109.073708,441.221985 108.897316,419.614288 108.913902,397.332977 
	C107.551430,396.986115 106.188965,396.639221 104.062233,396.124084 
	C103.285271,396.170898 102.508301,396.217712 100.970512,396.096313 
	C97.649620,396.079163 94.326576,396.129913 91.008492,396.024475 
	C88.095642,395.931976 86.847984,397.031464 86.916946,400.122498 
	C87.124207,409.413391 87.097878,418.709564 86.999763,428.848572 
	C87.057518,430.564362 87.115273,432.280182 87.008972,434.892792 
	C87.059959,437.930023 87.110947,440.967255 86.999268,444.743744 
	C87.053642,445.494568 87.108009,446.245422 86.995880,447.900391 
M234.056610,615.386108 
	C245.298615,623.708069 256.540619,632.029968 267.751038,640.328552 
	C267.751038,620.099915 267.751038,599.706238 267.751038,578.887817 
	C265.433990,578.887817 263.460480,578.885193 261.486938,578.888184 
	C246.385162,578.911438 247.586700,579.889282 247.670273,564.685547 
	C247.725937,554.559326 247.680847,544.432495 247.680847,534.046692 
	C245.936218,533.928223 244.653122,533.766541 243.369919,533.765686 
	C231.872864,533.758301 220.375824,533.780518 208.878769,533.791199 
	C202.934113,533.796753 201.770172,532.802002 201.727997,526.907715 
	C201.634979,513.911438 201.642166,500.913940 201.696396,487.917328 
	C201.719940,482.273132 203.096954,481.024597 208.963745,481.007507 
	C220.127701,480.974945 231.291824,480.996613 242.455795,480.969482 
	C244.046707,480.965607 245.637238,480.814758 247.709976,480.706818 
	C247.709976,478.457733 247.713898,476.654297 247.709351,474.850861 
	C247.681992,464.020416 247.759750,453.188080 247.571472,442.360413 
	C247.495926,438.016205 249.377731,436.302246 253.542877,436.389130 
	C258.301147,436.488342 263.063049,436.412109 268.799133,436.412109 
	C267.674103,428.007141 266.746368,420.275238 265.526917,412.589661 
	C265.258362,410.897095 264.206787,409.162811 263.089966,407.795563 
	C243.892258,384.293274 219.906952,367.954010 190.558289,359.814972 
	C178.372986,356.435669 165.976929,354.267181 153.026520,354.027771 
	C152.693954,359.360443 152.389069,364.249237 152.065140,369.443298 
	C141.626785,368.325409 131.765564,367.269318 121.812668,366.203430 
	C121.812668,440.189636 121.812668,513.744995 121.812668,587.278870 
	C130.403427,587.850769 138.539154,588.191040 146.633102,588.967102 
	C177.275406,591.905029 206.641632,599.184448 234.056610,615.386108 
M297.279694,577.863770 
	C291.278961,578.387512 285.278198,578.911316 279.497040,579.415894 
	C279.497040,600.380859 279.497040,621.056946 279.497040,642.996704 
	C320.346161,602.711243 370.280762,589.498474 424.715088,588.799133 
	C424.715088,515.597656 424.715088,442.876160 424.715088,369.660706 
	C414.583832,370.699463 404.814423,371.533264 395.097046,372.774353 
	C390.788177,373.324646 388.711426,372.314758 389.185181,367.663452 
	C389.393616,365.616943 389.220245,363.531525 389.220245,360.901459 
	C381.485229,361.702667 374.674988,362.136017 367.953583,363.155090 
	C347.511658,366.254456 327.763977,371.546936 311.159210,384.608612 
	C302.138184,391.704773 293.716034,399.567841 285.120392,407.193939 
	C283.675323,408.476013 281.968872,410.184326 281.672180,411.916504 
	C280.309143,419.873962 279.403595,427.909729 278.286682,436.270874 
	C283.816681,436.270874 288.282013,436.358215 292.742340,436.246063 
	C297.098999,436.136475 299.142426,437.904633 299.069611,442.470367 
	C298.907471,452.631683 299.019379,462.797333 299.019592,472.961212 
	C299.019653,475.543671 299.019623,478.126129 299.019623,480.969727 
	C301.622406,480.969727 303.441650,480.965607 305.260895,480.970367 
	C316.257721,480.999237 327.254578,481.059723 338.251343,481.043915 
	C341.948334,481.038605 344.677277,482.432526 344.705872,486.358887 
	C344.807739,500.351685 344.747070,514.347351 344.562164,528.339417 
	C344.513275,532.038940 342.502686,533.885681 338.426453,533.818359 
	C326.932739,533.628540 315.433746,533.749146 303.936890,533.775391 
	C302.355957,533.778992 300.775391,533.941284 298.959229,534.043274 
	C298.959229,546.884216 299.004425,559.199585 298.912048,571.513794 
	C298.897644,573.428223 298.254944,575.337891 297.279694,577.863770 
M966.198120,469.253021 
	C962.286011,462.670227 958.424622,456.056244 954.414429,449.533783 
	C953.706604,448.382568 952.401794,446.827606 951.330872,446.794067 
	C943.752136,446.556885 936.162415,446.667938 928.658997,446.667938 
	C928.658997,489.590790 928.658997,531.713745 928.658997,574.031616 
	C936.963196,574.031616 944.902710,574.031616 953.318420,574.031616 
	C953.318420,546.158630 953.318420,518.532410 953.318420,490.581207 
	C963.350342,507.103119 973.063782,523.197083 982.884888,539.225098 
	C986.554688,545.214355 992.041870,545.110413 995.837158,539.106567 
	C997.972290,535.729065 1000.013245,532.291443 1002.068176,528.863892 
	C1009.559387,516.369202 1017.038635,503.867371 1025.258423,490.138855 
	C1025.258423,518.990662 1025.258423,546.468567 1025.258423,573.940308 
	C1033.833740,573.940308 1041.911377,573.940308 1050.014404,573.940308 
	C1050.014404,531.339539 1050.014404,489.087311 1050.014404,446.670349 
	C1042.525513,446.670349 1035.375488,446.513641 1028.243652,446.804718 
	C1026.845337,446.861816 1025.020874,448.357788 1024.233887,449.687744 
	C1015.672791,464.155273 1007.285522,478.725555 998.836853,493.259766 
	C995.808228,498.469971 992.741394,503.658020 989.369568,509.405884 
	C981.537415,495.818634 974.060425,482.847443 966.198120,469.253021 
M600.462830,507.956482 
	C599.191467,507.358948 597.920166,506.761414 596.328369,506.013275 
	C599.329834,503.919525 602.422485,502.570312 604.341125,500.250214 
	C607.969727,495.862457 612.271362,491.341644 613.915222,486.126526 
	C619.723572,467.700409 610.769714,452.575226 591.291138,448.361938 
	C581.977234,446.347290 572.156555,446.386139 562.547363,446.099548 
	C550.620544,445.743805 538.675049,446.014282 526.444031,446.014282 
	C526.444031,488.996765 526.444031,531.355042 526.444031,573.993103 
	C528.147278,574.082397 529.605225,574.225098 531.063232,574.224976 
	C545.214050,574.223389 559.370667,574.428223 573.513184,574.075867 
	C579.954163,573.915405 586.481201,573.156189 592.770569,571.768311 
	C607.786804,568.454773 618.241638,556.711853 619.884827,542.137085 
	C621.705444,525.987915 616.156189,515.941956 600.462830,507.956482 
M1269.255737,517.908203 
	C1269.194336,511.427490 1269.659912,504.890717 1268.977051,498.476166 
	C1266.491699,475.128021 1254.796875,456.813995 1230.446289,449.802490 
	C1209.231079,443.693787 1187.507935,447.792847 1165.767090,446.492828 
	C1165.767090,489.407013 1165.767090,531.608215 1165.767090,573.619995 
	C1182.574707,573.619995 1199.091919,574.560425 1215.464111,573.418762 
	C1246.780640,571.234924 1266.822998,550.252014 1269.255737,517.908203 
M852.472290,443.607483 
	C846.525879,443.989136 840.579407,444.370819 834.401855,444.767334 
	C834.401855,488.192078 834.401855,530.942322 834.401855,573.884949 
	C842.310181,573.884949 850.012512,573.884949 858.355835,573.884949 
	C858.355835,559.492310 858.355835,545.454468 858.355835,529.932373 
	C860.528625,532.471252 861.777832,533.763733 862.838135,535.196106 
	C871.753357,547.240173 880.603821,559.332458 889.572266,571.336548 
	C890.464172,572.530273 891.992371,574.006714 893.259644,574.039917 
	C902.191162,574.273804 911.131653,574.164124 921.071716,574.164124 
	C908.571472,557.547241 896.636536,541.681885 884.706299,525.822815 
	C895.682068,512.214722 906.340942,498.999481 917.443176,485.234497 
	C913.900696,485.234497 911.335815,485.621765 908.927612,485.171173 
	C894.181030,482.411987 884.166565,488.274261 876.484985,500.870880 
	C871.745667,508.642487 865.013184,515.198608 859.175476,522.300415 
	C858.847351,522.135803 858.519165,521.971252 858.191040,521.806702 
	C858.191040,495.904938 858.191040,470.003204 858.191040,443.833435 
	C856.325989,443.746094 854.851868,443.677063 852.472290,443.607483 
M1120.796265,514.094177 
	C1116.868652,525.678711 1112.941040,537.263306 1108.788086,549.512451 
	C1101.428589,529.014771 1094.346436,509.229614 1087.186890,489.472504 
	C1086.665161,488.032776 1085.623169,485.669647 1084.756714,485.639435 
	C1076.398926,485.347870 1068.026978,485.464600 1059.307861,485.464600 
	C1071.573853,515.761414 1083.475220,545.149780 1095.355103,574.546692 
	C1095.645996,575.266846 1095.901733,576.101440 1095.833008,576.851318 
	C1095.089722,584.959045 1086.318237,592.970337 1078.122559,593.081482 
	C1076.164185,593.108032 1074.205200,593.085449 1071.362427,593.085449 
	C1071.362427,597.965515 1071.193604,602.762329 1071.482544,607.531311 
	C1071.553589,608.704590 1072.956421,610.571655 1074.019165,610.789001 
	C1083.251343,612.677185 1092.154541,612.138916 1100.424316,606.841248 
	C1108.682861,601.550781 1113.647339,593.740417 1117.145020,585.003784 
	C1129.626343,553.826721 1141.862671,522.551453 1154.187012,491.311554 
	C1154.881226,489.551636 1155.533081,487.774963 1156.349976,485.623322 
	C1148.135376,485.623322 1140.660156,485.474030 1133.202637,485.770782 
	C1131.965576,485.820038 1130.223389,487.594330 1129.706421,488.949707 
	C1126.631592,497.012207 1123.848389,505.186005 1120.796265,514.094177 
M1309.265259,484.746429 
	C1289.776367,490.899323 1280.396118,504.818665 1278.250366,524.577881 
	C1275.386597,550.950623 1291.765625,572.395752 1317.551392,575.688660 
	C1338.079956,578.310181 1356.767944,569.604004 1365.639893,553.285583 
	C1374.567505,536.864685 1372.509399,511.583954 1360.663452,498.143982 
	C1346.903076,482.532135 1329.362549,479.972198 1309.265259,484.746429 
M627.744690,531.325317 
	C628.148376,541.720398 630.867493,551.343750 637.429443,559.608215 
	C648.879333,574.028931 669.641296,579.701111 689.661438,573.885010 
	C705.410950,569.309509 718.883179,555.319946 720.572327,533.419983 
	C722.291504,511.130219 710.894714,491.637604 690.904358,485.056366 
	C673.321167,479.267609 646.374573,481.945312 633.740173,504.532623 
	C629.194580,512.658997 627.806946,521.380188 627.744690,531.325317 
M798.017151,487.416473 
	C795.529419,486.471588 793.085266,485.385590 790.547363,484.603516 
	C763.071228,476.137146 735.969971,491.275940 730.394592,518.162964 
	C725.350342,542.488708 735.210876,563.068665 756.301941,572.234070 
	C779.301270,582.228760 806.969482,572.975891 817.320068,551.651306 
	C827.003174,531.701782 823.317017,500.274841 798.017151,487.416473 
M1404.888672,525.761414 
	C1405.237305,517.320923 1408.070801,509.929565 1415.313354,505.206573 
	C1426.553345,497.876709 1437.566040,501.622772 1448.465088,507.183838 
	C1449.705811,503.559509 1450.569824,500.152405 1452.020386,497.016602 
	C1453.925049,492.899200 1452.316772,490.708344 1448.852905,488.552338 
	C1429.828125,476.710571 1400.245361,482.801697 1387.611328,501.260529 
	C1380.077026,512.268433 1378.248047,524.371399 1379.778198,537.430298 
	C1383.568359,569.780396 1423.503174,587.919495 1450.521362,569.313843 
	C1451.826416,568.415161 1453.189453,566.082642 1452.934204,564.714844 
	C1452.095093,560.218445 1450.522339,555.859009 1449.171143,551.240662 
	C1447.490356,552.048645 1446.461670,552.539917 1445.435669,553.036743 
	C1424.067505,563.386902 1403.060791,553.917358 1404.888672,525.761414 
M420.335999,342.807281 
	C421.408234,334.816742 418.442444,328.367828 411.952759,324.578522 
	C405.565063,320.848816 397.817688,321.482941 391.864655,326.222870 
	C386.329132,330.630402 384.086853,337.416260 385.973663,344.051025 
	C388.047668,351.344025 394.965881,356.749451 402.544189,356.998077 
	C410.608276,357.262665 417.193573,352.265320 420.335999,342.807281 
z"/>
<path fill="#374EE5" opacity="1.000000" stroke="none" 
	d="
M233.741211,615.202271 
	C206.641632,599.184448 177.275406,591.905029 146.633102,588.967102 
	C138.539154,588.191040 130.403427,587.850769 121.812668,587.278870 
	C121.812668,513.744995 121.812668,440.189636 121.812668,366.203430 
	C131.765564,367.269318 141.626785,368.325409 152.065140,369.443298 
	C152.389069,364.249237 152.693954,359.360443 153.026520,354.027771 
	C165.976929,354.267181 178.372986,356.435669 190.558289,359.814972 
	C219.906952,367.954010 243.892258,384.293274 263.089966,407.795563 
	C264.206787,409.162811 265.258362,410.897095 265.526917,412.589661 
	C266.746368,420.275238 267.674103,428.007141 268.799133,436.412109 
	C263.063049,436.412109 258.301147,436.488342 253.542877,436.389130 
	C249.377731,436.302246 247.495926,438.016205 247.571472,442.360413 
	C247.759750,453.188080 247.681992,464.020416 247.709351,474.850861 
	C247.713898,476.654297 247.709976,478.457733 247.709976,480.706818 
	C245.637238,480.814758 244.046707,480.965607 242.455795,480.969482 
	C231.291824,480.996613 220.127701,480.974945 208.963745,481.007507 
	C203.096954,481.024597 201.719940,482.273132 201.696396,487.917328 
	C201.642166,500.913940 201.634979,513.911438 201.727997,526.907715 
	C201.770172,532.802002 202.934113,533.796753 208.878769,533.791199 
	C220.375824,533.780518 231.872864,533.758301 243.369919,533.765686 
	C244.653122,533.766541 245.936218,533.928223 247.680847,534.046692 
	C247.680847,544.432495 247.725937,554.559326 247.670273,564.685547 
	C247.586700,579.889282 246.385162,578.911438 261.486938,578.888184 
	C263.460480,578.885193 265.433990,578.887817 267.751038,578.887817 
	C267.751038,599.706238 267.751038,620.099915 267.751038,640.328552 
	C256.540619,632.029968 245.298615,623.708069 233.741211,615.202271 
z"/>
<path fill="#1B35B4" opacity="1.000000" stroke="none" 
	d="
M297.591248,577.556763 
	C298.254944,575.337891 298.897644,573.428223 298.912048,571.513794 
	C299.004425,559.199585 298.959229,546.884216 298.959229,534.043274 
	C300.775391,533.941284 302.355957,533.778992 303.936890,533.775391 
	C315.433746,533.749146 326.932739,533.628540 338.426453,533.818359 
	C342.502686,533.885681 344.513275,532.038940 344.562164,528.339417 
	C344.747070,514.347351 344.807739,500.351685 344.705872,486.358887 
	C344.677277,482.432526 341.948334,481.038605 338.251343,481.043915 
	C327.254578,481.059723 316.257721,480.999237 305.260895,480.970367 
	C303.441650,480.965607 301.622406,480.969727 299.019623,480.969727 
	C299.019623,478.126129 299.019653,475.543671 299.019592,472.961212 
	C299.019379,462.797333 298.907471,452.631683 299.069611,442.470367 
	C299.142426,437.904633 297.098999,436.136475 292.742340,436.246063 
	C288.282013,436.358215 283.816681,436.270874 278.286682,436.270874 
	C279.403595,427.909729 280.309143,419.873962 281.672180,411.916504 
	C281.968872,410.184326 283.675323,408.476013 285.120392,407.193939 
	C293.716034,399.567841 302.138184,391.704773 311.159210,384.608612 
	C327.763977,371.546936 347.511658,366.254456 367.953583,363.155090 
	C374.674988,362.136017 381.485229,361.702667 389.220245,360.901459 
	C389.220245,363.531525 389.393616,365.616943 389.185181,367.663452 
	C388.711426,372.314758 390.788177,373.324646 395.097046,372.774353 
	C404.814423,371.533264 414.583832,370.699463 424.715088,369.660706 
	C424.715088,442.876160 424.715088,515.597656 424.715088,588.799133 
	C370.280762,589.498474 320.346161,602.711243 279.497040,642.996704 
	C279.497040,621.056946 279.497040,600.380859 279.497040,579.415894 
	C285.278198,578.911316 291.278961,578.387512 297.591248,577.556763 
z"/>
<path fill="#1C36B3" opacity="1.000000" stroke="none" 
	d="
M108.868591,567.996948 
	C108.940208,576.820435 109.207855,585.648499 109.000305,594.465393 
	C108.897362,598.838928 110.374725,600.191040 114.751778,600.203613 
	C145.275223,600.291016 175.170181,604.162415 203.706482,615.750122 
	C229.005753,626.023376 250.845062,641.046143 268.100800,662.410645 
	C269.655579,664.335632 271.266479,666.215332 272.872742,668.141846 
	C278.852722,661.568726 284.280579,654.876709 290.445679,648.951843 
	C316.816223,623.609009 348.963104,609.885254 384.588165,604.240051 
	C400.155396,601.773376 416.044373,601.187378 431.817566,600.265991 
	C436.288086,600.004822 437.409119,598.693298 437.403076,594.446533 
	C437.312408,530.804138 437.363281,467.161499 437.380707,403.518921 
	C437.381287,401.401672 437.380768,399.284424 437.380768,396.579163 
	C444.059387,396.579163 450.175476,396.576477 456.291565,396.580200 
	C460.052673,396.582458 459.299347,399.373962 459.300049,401.587555 
	C459.306610,422.246826 459.263000,442.906128 459.265167,463.565399 
	C459.270935,517.878906 459.286682,572.192444 459.314331,626.505981 
	C459.317902,633.540833 459.359680,633.638428 452.137665,633.533081 
	C423.449432,633.114868 394.834900,633.824890 366.582733,639.484436 
	C332.331573,646.345459 301.095123,659.466980 275.414703,683.945862 
	C274.943420,684.395142 274.352844,684.719177 273.509399,685.322205 
	C268.529602,681.235229 263.708191,676.953247 258.560669,673.107849 
	C231.213730,652.679382 199.977020,642.171509 166.575958,637.085083 
	C142.589523,633.432434 118.453224,633.548096 94.304878,633.564514 
	C92.021835,633.566040 89.738670,633.369568 87.005630,633.244385 
	C87.005630,611.504761 87.005630,590.212097 87.475250,568.466797 
	C94.754875,569.519104 101.565468,574.485901 108.382652,568.015930 
	C108.471046,567.932007 108.703415,567.999878 108.868591,567.996948 
z"/>
<path fill="#0F1E97" opacity="1.000000" stroke="none" 
	d="
M966.390747,469.564636 
	C974.060425,482.847443 981.537415,495.818634 989.369568,509.405884 
	C992.741394,503.658020 995.808228,498.469971 998.836853,493.259766 
	C1007.285522,478.725555 1015.672791,464.155273 1024.233887,449.687744 
	C1025.020874,448.357788 1026.845337,446.861816 1028.243652,446.804718 
	C1035.375488,446.513641 1042.525513,446.670349 1050.014404,446.670349 
	C1050.014404,489.087311 1050.014404,531.339539 1050.014404,573.940308 
	C1041.911377,573.940308 1033.833740,573.940308 1025.258423,573.940308 
	C1025.258423,546.468567 1025.258423,518.990662 1025.258423,490.138855 
	C1017.038635,503.867371 1009.559387,516.369202 1002.068176,528.863892 
	C1000.013245,532.291443 997.972290,535.729065 995.837158,539.106567 
	C992.041870,545.110413 986.554688,545.214355 982.884888,539.225098 
	C973.063782,523.197083 963.350342,507.103119 953.318420,490.581207 
	C953.318420,518.532410 953.318420,546.158630 953.318420,574.031616 
	C944.902710,574.031616 936.963196,574.031616 928.658997,574.031616 
	C928.658997,531.713745 928.658997,489.590790 928.658997,446.667938 
	C936.162415,446.667938 943.752136,446.556885 951.330872,446.794067 
	C952.401794,446.827606 953.706604,448.382568 954.414429,449.533783 
	C958.424622,456.056244 962.286011,462.670227 966.390747,469.564636 
z"/>
<path fill="#0F1E99" opacity="1.000000" stroke="none" 
	d="
M600.815552,508.105133 
	C616.156189,515.941956 621.705444,525.987915 619.884827,542.137085 
	C618.241638,556.711853 607.786804,568.454773 592.770569,571.768311 
	C586.481201,573.156189 579.954163,573.915405 573.513184,574.075867 
	C559.370667,574.428223 545.214050,574.223389 531.063232,574.224976 
	C529.605225,574.225098 528.147278,574.082397 526.444031,573.993103 
	C526.444031,531.355042 526.444031,488.996765 526.444031,446.014282 
	C538.675049,446.014282 550.620544,445.743805 562.547363,446.099548 
	C572.156555,446.386139 581.977234,446.347290 591.291138,448.361938 
	C610.769714,452.575226 619.723572,467.700409 613.915222,486.126526 
	C612.271362,491.341644 607.969727,495.862457 604.341125,500.250214 
	C602.422485,502.570312 599.329834,503.919525 596.328369,506.013275 
	C597.920166,506.761414 599.191467,507.358948 600.815552,508.105133 
M583.224731,552.007935 
	C591.599854,547.739075 594.310303,542.208740 593.100952,531.856750 
	C592.286316,524.883606 588.074158,520.162109 579.395203,518.928589 
	C570.614868,517.680786 561.639954,517.801636 552.549988,517.312134 
	C552.549988,530.178955 552.549988,541.926636 552.549988,555.022095 
	C562.783752,554.072876 572.628296,553.159790 583.224731,552.007935 
M584.829285,470.667358 
	C574.828491,463.500458 563.524414,466.923340 552.544678,465.835663 
	C552.544678,477.106293 552.544678,487.501587 552.544678,499.087646 
	C560.733154,498.508026 568.770386,498.806061 576.408020,497.201691 
	C588.850830,494.587921 593.027405,481.507568 584.829285,470.667358 
z"/>
<path fill="#0D1C97" opacity="1.000000" stroke="none" 
	d="
M1269.216797,518.359497 
	C1266.822998,550.252014 1246.780640,571.234924 1215.464111,573.418762 
	C1199.091919,574.560425 1182.574707,573.619995 1165.767090,573.619995 
	C1165.767090,531.608215 1165.767090,489.407013 1165.767090,446.492828 
	C1187.507935,447.792847 1209.231079,443.693787 1230.446289,449.802490 
	C1254.796875,456.813995 1266.491699,475.128021 1268.977051,498.476166 
	C1269.659912,504.890717 1269.194336,511.427490 1269.216797,518.359497 
M1240.410278,527.717896 
	C1243.376953,516.191406 1243.122314,504.593964 1240.702026,493.064362 
	C1238.994507,484.930359 1234.641968,478.298859 1227.513184,473.804596 
	C1216.585083,466.915131 1204.490845,467.734253 1192.430664,468.177826 
	C1192.430664,496.645844 1192.430664,524.518127 1192.430664,553.153992 
	C1199.787354,552.699158 1206.810669,552.827698 1213.634766,551.723816 
	C1227.118042,549.542725 1236.220825,541.826050 1240.410278,527.717896 
z"/>
<path fill="#0F1E97" opacity="1.000000" stroke="none" 
	d="
M852.925049,443.607758 
	C854.851868,443.677063 856.325989,443.746094 858.191040,443.833435 
	C858.191040,470.003204 858.191040,495.904938 858.191040,521.806702 
	C858.519165,521.971252 858.847351,522.135803 859.175476,522.300415 
	C865.013184,515.198608 871.745667,508.642487 876.484985,500.870880 
	C884.166565,488.274261 894.181030,482.411987 908.927612,485.171173 
	C911.335815,485.621765 913.900696,485.234497 917.443176,485.234497 
	C906.340942,498.999481 895.682068,512.214722 884.706299,525.822815 
	C896.636536,541.681885 908.571472,557.547241 921.071716,574.164124 
	C911.131653,574.164124 902.191162,574.273804 893.259644,574.039917 
	C891.992371,574.006714 890.464172,572.530273 889.572266,571.336548 
	C880.603821,559.332458 871.753357,547.240173 862.838135,535.196106 
	C861.777832,533.763733 860.528625,532.471252 858.355835,529.932373 
	C858.355835,545.454468 858.355835,559.492310 858.355835,573.884949 
	C850.012512,573.884949 842.310181,573.884949 834.401855,573.884949 
	C834.401855,530.942322 834.401855,488.192078 834.401855,444.767334 
	C840.579407,444.370819 846.525879,443.989136 852.925049,443.607758 
z"/>
<path fill="#101F99" opacity="1.000000" stroke="none" 
	d="
M1120.881714,513.708252 
	C1123.848389,505.186005 1126.631592,497.012207 1129.706421,488.949707 
	C1130.223389,487.594330 1131.965576,485.820038 1133.202637,485.770782 
	C1140.660156,485.474030 1148.135376,485.623322 1156.349976,485.623322 
	C1155.533081,487.774963 1154.881226,489.551636 1154.187012,491.311554 
	C1141.862671,522.551453 1129.626343,553.826721 1117.145020,585.003784 
	C1113.647339,593.740417 1108.682861,601.550781 1100.424316,606.841248 
	C1092.154541,612.138916 1083.251343,612.677185 1074.019165,610.789001 
	C1072.956421,610.571655 1071.553589,608.704590 1071.482544,607.531311 
	C1071.193604,602.762329 1071.362427,597.965515 1071.362427,593.085449 
	C1074.205200,593.085449 1076.164185,593.108032 1078.122559,593.081482 
	C1086.318237,592.970337 1095.089722,584.959045 1095.833008,576.851318 
	C1095.901733,576.101440 1095.645996,575.266846 1095.355103,574.546692 
	C1083.475220,545.149780 1071.573853,515.761414 1059.307861,485.464600 
	C1068.026978,485.464600 1076.398926,485.347870 1084.756714,485.639435 
	C1085.623169,485.669647 1086.665161,488.032776 1087.186890,489.472504 
	C1094.346436,509.229614 1101.428589,529.014771 1108.788086,549.512451 
	C1112.941040,537.263306 1116.868652,525.678711 1120.881714,513.708252 
z"/>
<path fill="#0F1E98" opacity="1.000000" stroke="none" 
	d="
M1309.652344,484.629700 
	C1329.362549,479.972198 1346.903076,482.532135 1360.663452,498.143982 
	C1372.509399,511.583954 1374.567505,536.864685 1365.639893,553.285583 
	C1356.767944,569.604004 1338.079956,578.310181 1317.551392,575.688660 
	C1291.765625,572.395752 1275.386597,550.950623 1278.250366,524.577881 
	C1280.396118,504.818665 1289.776367,490.899323 1309.652344,484.629700 
M1304.358643,518.112610 
	C1304.253540,525.210510 1303.341919,532.411011 1304.229248,539.382568 
	C1305.614990,550.270325 1313.390503,556.733337 1323.807007,557.181519 
	C1333.975220,557.619019 1342.453613,551.945007 1344.517578,541.432251 
	C1345.955566,534.107849 1346.151611,526.165344 1345.002563,518.795166 
	C1343.285767,507.783752 1335.627686,501.645416 1325.729248,501.194366 
	C1315.296631,500.718964 1308.115356,506.209717 1304.358643,518.112610 
z"/>
<path fill="#0F1F98" opacity="1.000000" stroke="none" 
	d="
M627.740967,530.899109 
	C627.806946,521.380188 629.194580,512.658997 633.740173,504.532623 
	C646.374573,481.945312 673.321167,479.267609 690.904358,485.056366 
	C710.894714,491.637604 722.291504,511.130219 720.572327,533.419983 
	C718.883179,555.319946 705.410950,569.309509 689.661438,573.885010 
	C669.641296,579.701111 648.879333,574.028931 637.429443,559.608215 
	C630.867493,551.343750 628.148376,541.720398 627.740967,530.899109 
M653.850952,518.647339 
	C654.078613,526.707092 653.372009,534.934998 654.784546,542.781433 
	C656.340759,551.425537 664.223022,556.758606 672.948181,557.187439 
	C681.933594,557.629028 689.513672,553.190857 692.918396,545.079895 
	C697.082458,535.160217 697.457214,524.790588 693.650452,514.896423 
	C692.001892,510.611603 688.243164,506.250854 684.272217,503.912872 
	C672.073608,496.730743 658.766907,503.191559 653.850952,518.647339 
z"/>
<path fill="#0F1E99" opacity="1.000000" stroke="none" 
	d="
M798.341858,487.599121 
	C823.317017,500.274841 827.003174,531.701782 817.320068,551.651306 
	C806.969482,572.975891 779.301270,582.228760 756.301941,572.234070 
	C735.210876,563.068665 725.350342,542.488708 730.394592,518.162964 
	C735.969971,491.275940 763.071228,476.137146 790.547363,484.603516 
	C793.085266,485.385590 795.529419,486.471588 798.341858,487.599121 
M789.960388,506.503723 
	C777.690308,496.607147 761.586121,500.802094 756.223267,515.528687 
	C752.800720,524.927246 752.987793,534.568970 756.541565,543.896118 
	C759.496704,551.652283 765.156677,556.434875 773.751648,557.062988 
	C782.352417,557.691528 789.092834,554.376282 793.588684,547.046021 
	C800.410583,535.923401 798.862976,517.192444 789.960388,506.503723 
z"/>
<path fill="#0E1D97" opacity="1.000000" stroke="none" 
	d="
M1404.882568,526.222961 
	C1403.060791,553.917358 1424.067505,563.386902 1445.435669,553.036743 
	C1446.461670,552.539917 1447.490356,552.048645 1449.171143,551.240662 
	C1450.522339,555.859009 1452.095093,560.218445 1452.934204,564.714844 
	C1453.189453,566.082642 1451.826416,568.415161 1450.521362,569.313843 
	C1423.503174,587.919495 1383.568359,569.780396 1379.778198,537.430298 
	C1378.248047,524.371399 1380.077026,512.268433 1387.611328,501.260529 
	C1400.245361,482.801697 1429.828125,476.710571 1448.852905,488.552338 
	C1452.316772,490.708344 1453.925049,492.899200 1452.020386,497.016602 
	C1450.569824,500.152405 1449.705811,503.559509 1448.465088,507.183838 
	C1437.566040,501.622772 1426.553345,497.876709 1415.313354,505.206573 
	C1408.070801,509.929565 1405.237305,517.320923 1404.882568,526.222961 
z"/>
<path fill="#1832B0" opacity="1.000000" stroke="none" 
	d="
M108.963509,567.536804 
	C108.703415,567.999878 108.471046,567.932007 108.382652,568.015930 
	C101.565468,574.485901 94.754875,569.519104 87.563446,568.005310 
	C87.116119,537.119202 87.047539,506.241974 86.986771,475.364716 
	C86.975990,469.885834 86.997726,464.406891 87.466217,458.457458 
	C89.942245,457.321808 91.912933,456.392578 93.980644,456.051575 
	C97.342323,455.497162 97.442444,452.980408 96.807442,450.868011 
	C96.437347,449.636810 94.405190,448.632172 92.915344,448.080780 
	C91.111053,447.412964 89.089775,447.331451 87.162384,446.996246 
	C87.108009,446.245422 87.053642,445.494568 87.446915,444.362976 
	C91.999443,441.303711 91.672607,436.780243 87.173027,433.995972 
	C87.115273,432.280182 87.057518,430.564362 87.461670,428.361145 
	C88.615410,424.536560 89.633858,421.227386 89.922905,417.855713 
	C90.361847,412.735443 91.267059,408.097168 96.164146,405.207947 
	C98.700356,403.711609 101.062225,401.919800 103.500793,400.262878 
	C102.903496,398.913208 102.317421,397.588867 101.731339,396.264557 
	C102.508301,396.217712 103.285271,396.170898 104.592690,396.574371 
	C106.345123,397.351959 107.567101,397.679230 108.789078,398.006500 
	C108.897316,419.614288 109.073708,441.221985 109.098251,462.829895 
	C109.137711,497.578735 109.076881,532.327698 108.963509,567.536804 
z"/>
<path fill="#0B1995" opacity="1.000000" stroke="none" 
	d="
M420.267609,343.203796 
	C417.193573,352.265320 410.608276,357.262665 402.544189,356.998077 
	C394.965881,356.749451 388.047668,351.344025 385.973663,344.051025 
	C384.086853,337.416260 386.329132,330.630402 391.864655,326.222870 
	C397.817688,321.482941 405.565063,320.848816 411.952759,324.578522 
	C418.442444,328.367828 421.408234,334.816742 420.267609,343.203796 
z"/>
<path fill="#1C36B3" opacity="1.000000" stroke="none" 
	d="
M101.350929,396.180420 
	C102.317421,397.588867 102.903496,398.913208 103.500793,400.262878 
	C101.062225,401.919800 98.700356,403.711609 96.164146,405.207947 
	C91.267059,408.097168 90.361847,412.735443 89.922905,417.855713 
	C89.633858,421.227386 88.615410,424.536560 87.543129,427.938690 
	C87.097878,418.709564 87.124207,409.413391 86.916946,400.122498 
	C86.847984,397.031464 88.095642,395.931976 91.008492,396.024475 
	C94.326576,396.129913 97.649620,396.079163 101.350929,396.180420 
z"/>
<path fill="#1C36B3" opacity="1.000000" stroke="none" 
	d="
M87.079132,447.448303 
	C89.089775,447.331451 91.111053,447.412964 92.915344,448.080780 
	C94.405190,448.632172 96.437347,449.636810 96.807442,450.868011 
	C97.442444,452.980408 97.342323,455.497162 93.980644,456.051575 
	C91.912933,456.392578 89.942245,457.321808 87.550339,457.995789 
	C87.113747,454.636566 87.054810,451.268494 87.079132,447.448303 
z"/>
<path fill="#1C36B3" opacity="1.000000" stroke="none" 
	d="
M87.091003,434.444397 
	C91.672607,436.780243 91.999443,441.303711 87.528252,443.993347 
	C87.110947,440.967255 87.059959,437.930023 87.091003,434.444397 
z"/>
<path fill="#1C36B3" opacity="1.000000" stroke="none" 
	d="
M108.851486,397.669739 
	C107.567101,397.679230 106.345123,397.351959 104.974823,396.658508 
	C106.188965,396.639221 107.551430,396.986115 108.851486,397.669739 
z"/>
<path fill="#FBFBFD" opacity="1.000000" stroke="none" 
	d="
M582.848755,552.127319 
	C572.628296,553.159790 562.783752,554.072876 552.549988,555.022095 
	C552.549988,541.926636 552.549988,530.178955 552.549988,517.312134 
	C561.639954,517.801636 570.614868,517.680786 579.395203,518.928589 
	C588.074158,520.162109 592.286316,524.883606 593.100952,531.856750 
	C594.310303,542.208740 591.599854,547.739075 582.848755,552.127319 
z"/>
<path fill="#F8F8FC" opacity="1.000000" stroke="none" 
	d="
M585.120361,470.905609 
	C593.027405,481.507568 588.850830,494.587921 576.408020,497.201691 
	C568.770386,498.806061 560.733154,498.508026 552.544678,499.087646 
	C552.544678,487.501587 552.544678,477.106293 552.544678,465.835663 
	C563.524414,466.923340 574.828491,463.500458 585.120361,470.905609 
z"/>
<path fill="#FCFCFD" opacity="1.000000" stroke="none" 
	d="
M1240.297852,528.108643 
	C1236.220825,541.826050 1227.118042,549.542725 1213.634766,551.723816 
	C1206.810669,552.827698 1199.787354,552.699158 1192.430664,553.153992 
	C1192.430664,524.518127 1192.430664,496.645844 1192.430664,468.177826 
	C1204.490845,467.734253 1216.585083,466.915131 1227.513184,473.804596 
	C1234.641968,478.298859 1238.994507,484.930359 1240.702026,493.064362 
	C1243.122314,504.593964 1243.376953,516.191406 1240.297852,528.108643 
z"/>
<path fill="#FBFBFD" opacity="1.000000" stroke="none" 
	d="
M1304.485718,517.726196 
	C1308.115356,506.209717 1315.296631,500.718964 1325.729248,501.194366 
	C1335.627686,501.645416 1343.285767,507.783752 1345.002563,518.795166 
	C1346.151611,526.165344 1345.955566,534.107849 1344.517578,541.432251 
	C1342.453613,551.945007 1333.975220,557.619019 1323.807007,557.181519 
	C1313.390503,556.733337 1305.614990,550.270325 1304.229248,539.382568 
	C1303.341919,532.411011 1304.253540,525.210510 1304.485718,517.726196 
z"/>
<path fill="#FCFCFD" opacity="1.000000" stroke="none" 
	d="
M653.931641,518.239990 
	C658.766907,503.191559 672.073608,496.730743 684.272217,503.912872 
	C688.243164,506.250854 692.001892,510.611603 693.650452,514.896423 
	C697.457214,524.790588 697.082458,535.160217 692.918396,545.079895 
	C689.513672,553.190857 681.933594,557.629028 672.948181,557.187439 
	C664.223022,556.758606 656.340759,551.425537 654.784546,542.781433 
	C653.372009,534.934998 654.078613,526.707092 653.931641,518.239990 
z"/>
<path fill="#FBFBFD" opacity="1.000000" stroke="none" 
	d="
M790.226318,506.755035 
	C798.862976,517.192444 800.410583,535.923401 793.588684,547.046021 
	C789.092834,554.376282 782.352417,557.691528 773.751648,557.062988 
	C765.156677,556.434875 759.496704,551.652283 756.541565,543.896118 
	C752.987793,534.568970 752.800720,524.927246 756.223267,515.528687 
	C761.586121,500.802094 777.690308,496.607147 790.226318,506.755035 
z"/>
</svg>